HIERARCHY
ROOT Hips
{
	OFFSET 0.00000 0.00000 0.00000
	CHANNELS 6 Xposition Yposition Zposition Zrotation Yrotation Xrotation 
	JOINT LHipJoint
	{
		OFFSET 0 0 0
		CHANNELS 3 Zrotation Yrotation Xrotation
		JOINT LeftHip
		{
			OFFSET 1.75344 -1.53157 0.77399
			CHANNELS 3 Zrotation Yrotation Xrotation
			JOINT LeftKnee
			{
				OFFSET 2.25415 -6.19323 0.00000
				CHANNELS 3 Zrotation Yrotation Xrotation
				JOINT LeftAnkle
				{
					OFFSET 2.30342 -6.32861 0.00000
					CHANNELS 3 Zrotation Yrotation Xrotation
					JOINT LeftToe
					{
						OFFSET 0.10958 -0.30108 1.49206
						CHANNELS 3 Zrotation Yrotation Xrotation
						End Site
						{
							OFFSET 0.00000 -0.00000 0.77783
						}
					}
				}
			}
		}
	}
	JOINT RHipJoint
	{
		OFFSET 0 0 0
		CHANNELS 3 Zrotation Yrotation Xrotation
		JOINT RightHip
		{
			OFFSET -1.81912 -1.53156 0.77399
			CHANNELS 3 Zrotation Yrotation Xrotation
			JOINT RightKnee
			{
				OFFSET -2.22882 -6.12365 0.00000
				CHANNELS 3 Zrotation Yrotation Xrotation
				JOINT RightAnkle
				{
					OFFSET -2.21943 -6.09785 0.00000
					CHANNELS 3 Zrotation Yrotation Xrotation
					JOINT RightToe
					{
						OFFSET -0.18931 -0.52012 1.59379
						CHANNELS 3 Zrotation Yrotation Xrotation
						End Site
						{
							OFFSET -0.00000 -0.00000 0.84686
						}
					}
				}
			}
		}
	}
	JOINT lowerback
	{
		OFFSET 0 0 0
		CHANNELS 3 Zrotation Yrotation Xrotation
		JOINT Chest
		{
			OFFSET -0.00200 1.66634 -0.14248
			CHANNELS 3 Zrotation Yrotation Xrotation
			JOINT Chest2
			{
				OFFSET -0.00875 1.64542 0.09514
				CHANNELS 3 Zrotation Yrotation Xrotation
				JOINT lowerneck
				{
					OFFSET 0 0 0
					CHANNELS 3 Zrotation Yrotation Xrotation
					JOINT Neck
					{
						OFFSET 0.02257 1.59605 0.00839
						CHANNELS 3 Zrotation Yrotation Xrotation
						JOINT Head
						{
							OFFSET -0.10214 1.57530 -0.23335
							CHANNELS 3 Zrotation Yrotation Xrotation
							End Site
							{
								OFFSET -0.03588 1.60717 -0.08062
							}
						}
					}
				}
				JOINT LeftCollar
				{
					OFFSET 0 0 0
					CHANNELS 3 Zrotation Yrotation Xrotation
					JOINT LeftShoulder
					{
						OFFSET 2.54983 1.10186 0.40078
CHANNELS 3 Zrotation Xrotation Yrotation
						JOINT LeftElbow
						{
OFFSET 0 -4.288400 0.000000
CHANNELS 3 Zrotation Xrotation Yrotation
							JOINT LeftWrist
							{
OFFSET 0 -3.065520 -0.000000
CHANNELS 3 Zrotation Xrotation Yrotation
								JOINT lhand
								{
									OFFSET 0 0 0
CHANNELS 3 Zrotation Xrotation Yrotation
									JOINT LFingers
									{
OFFSET 0 -0.753040 0.000000
CHANNELS 3 Zrotation Xrotation Yrotation
										End Site
										{
OFFSET 0 -0.607120 0.000000
										}
									}
								}
								JOINT LThumb
								{
OFFSET 0 0.000000 0.000000
CHANNELS 3 Zrotation Xrotation Yrotation
									End Site
									{
OFFSET 0 -0.616390 0.616390
									}
								}
							}
						}
					}
				}
				JOINT RightCollar
				{
					OFFSET 0 0 0
					CHANNELS 3 Zrotation Yrotation Xrotation
					JOINT RightShoulder
					{
						OFFSET -2.60909 1.35448 0.21802
CHANNELS 3 Zrotation Xrotation Yrotation
						JOINT RightElbow
						{
OFFSET 0 -4.521720 -0.000000
CHANNELS 3 Zrotation Xrotation Yrotation
							JOINT RightWrist
							{
OFFSET 0 -2.891400 0.000000
CHANNELS 3 Zrotation Xrotation Yrotation
								JOINT rhand
								{
									OFFSET 0 0 0
CHANNELS 3 Zrotation Xrotation Yrotation
									JOINT RFingers
									{
OFFSET 0 -0.680540 0.000000
CHANNELS 3 Zrotation Xrotation Yrotation
										End Site
										{
OFFSET 0 -0.548670 0.000000
										}
									}
								}
								JOINT RThumb
								{
OFFSET 0 0.000000 0.000000
CHANNELS 3 Zrotation Xrotation Yrotation
									End Site
									{
OFFSET 0 -0.557050 0.557050
									}
								}
							}
						}
					}
				}
			}
		}
	}
}
MOTION
Frames: 11
Frame Time: 0.008333333333333333
8.356900 14.692000 13.512500 -178.335000 -1.622000 -176.764000 0.000000 0.000000 0.000000 -18.918900 -17.450800 -20.925400 7.140800 15.449300 49.404900 3.099200 -6.506200 -32.040000 4.391200 -12.663600 -38.121800 0.000000 0.000000 0.000000 24.599600 6.757300 -19.158100 -6.119500 -14.543200 45.459600 -2.283300 -10.944900 -34.135700 -0.278800 3.396300 -9.384000 3.122500 2.904200 10.933000 0.280000 4.364700 -3.952500 -2.295700 1.888500 -10.188500 -7.734100 -1.562100 -7.680200 7.040700 -2.039700 9.615100 3.310800 -0.941400 4.276500 0.000000 0.000000 0.000000 8.320600 14.481400 -32.267600 17.034800 -26.903700 4.103100 1.170000 8.621500 37.129700 0.000000 0.000000 0.000000 -7.125000 0.000000 0.000000 -17.271900 -5.698300 -19.781900 0.000000 0.000000 0.000000 -9.236600 17.670100 39.512500 -20.485700 -31.223100 -5.781000 -17.188200 13.108700 46.484200 0.000000 0.000000 0.000000 7.125000 0.000000 -0.000000 40.902900 74.521900 -29.635900
8.353780 14.690886 13.516883 -178.374374 -1.544366 -176.754342 0.000000 0.000000 0.000000 -18.966743 -17.433490 -20.958385 7.145777 15.453386 49.423473 3.103212 -6.390678 -32.075585 4.433991 -12.716495 -38.316218 0.000000 0.000000 0.000000 24.534967 6.855215 -19.221024 -6.149142 -14.571282 45.577350 -2.342212 -10.742607 -34.329004 -0.233780 3.107161 -8.577725 3.031346 2.872032 10.956402 0.322791 4.312399 -3.891433 -2.188647 1.873122 -10.147343 -8.073385 -1.880806 -7.554426 7.253096 -2.459887 9.524094 3.406932 -1.151271 4.266917 0.000000 0.000000 0.000000 8.368666 14.376948 -31.970215 17.092301 -26.979253 4.129102 1.041180 8.604785 37.191510 0.000000 0.000000 0.000000 -7.125000 0.000000 0.000000 -17.340247 -5.745400 -19.880706 0.000000 0.000000 0.000000 -9.524698 17.414392 39.429889 -20.729447 -31.510827 -5.908037 -16.491504 12.120191 46.964414 0.000000 0.000000 0.000000 7.125000 0.000000 0.000000 42.967730 74.571303 -31.298744
8.351097 14.688460 13.522918 -178.356422 -1.426799 -176.697075 0.000000 0.000000 0.000000 -18.930590 -17.395291 -21.080176 7.158188 15.463642 49.470028 3.117911 -6.102986 -32.192252 4.557767 -12.866503 -38.872759 0.000000 0.000000 0.000000 24.526834 7.001711 -19.323784 -6.173537 -14.594408 45.674308 -2.381304 -10.563827 -34.428498 -0.202265 2.893615 -7.982972 2.996302 2.854342 10.939918 0.367963 4.285944 -3.839014 -2.112881 1.866780 -10.087045 -8.366517 -2.196500 -7.456586 7.416912 -2.875264 9.453055 3.480376 -1.359149 4.268410 0.000000 0.000000 0.000000 8.487903 14.338905 -31.826492 17.244875 -27.179126 4.198729 0.961622 8.481968 37.156935 0.000000 0.000000 0.000000 -7.125000 0.000000 0.000000 -17.379883 -5.705200 -19.919418 0.000000 0.000000 0.000000 -9.768637 17.109180 39.304527 -20.860146 -31.664714 -5.976339 -15.998945 11.621378 47.394880 0.000000 0.000000 0.000000 7.125000 0.000000 0.000000 44.702889 74.656948 -32.747151
8.348714 14.685591 13.530079 -178.318654 -1.275268 -176.613240 0.000000 0.000000 0.000000 -18.859865 -17.333823 -21.250908 7.173640 15.476385 49.527984 3.131931 -5.818180 -32.305422 4.667954 -12.999793 -39.367706 0.000000 0.000000 0.000000 24.532706 7.146653 -19.466999 -6.195110 -14.614821 45.759988 -2.393598 -10.438362 -34.414787 -0.193062 2.828026 -7.800438 2.988895 2.848338 10.914632 0.403759 4.278038 -3.795722 -2.065793 1.866981 -10.027985 -8.602771 -2.502252 -7.381535 7.528853 -3.276226 9.383846 3.528847 -1.559936 4.273088 0.000000 0.000000 0.000000 8.648487 14.303874 -31.755557 17.404352 -27.387793 4.271683 1.032576 8.230294 37.145730 0.000000 0.000000 0.000000 -7.125000 0.000000 0.000000 -17.343189 -5.701183 -19.872099 0.000000 0.000000 0.000000 -9.982687 16.805696 39.170720 -20.944491 -31.763391 -6.020694 -15.663134 11.394296 47.680615 0.000000 0.000000 0.000000 7.125000 0.000000 0.000000 45.865300 74.706651 -33.716912
8.346485 14.683288 13.537805 -178.304539 -1.094891 -176.526321 0.000000 0.000000 0.000000 -18.811353 -17.244897 -21.426011 7.187086 15.487380 49.578279 3.131709 -5.744707 -32.314262 4.651239 -12.979958 -39.293341 0.000000 0.000000 0.000000 24.502841 7.230304 -19.653765 -6.216580 -14.635028 45.845050 -2.369231 -10.404783 -34.258183 -0.217949 3.005134 -8.292984 2.976860 2.851384 10.917009 0.415646 4.281084 -3.762663 -2.045958 1.871141 -9.994480 -8.766062 -2.789237 -7.324480 7.581971 -3.650502 9.294994 3.548162 -1.747148 4.271751 0.000000 0.000000 0.000000 8.817349 14.196598 -31.665443 17.466236 -27.468324 4.300210 1.383302 7.815159 37.301740 0.000000 0.000000 0.000000 -7.125000 0.000000 0.000000 -17.169052 -5.882378 -19.702865 0.000000 0.000000 0.000000 -10.182083 16.564995 39.068794 -21.059121 -31.897189 -6.081093 -15.436845 11.195495 47.700154 0.000000 0.000000 0.000000 7.125000 0.000000 0.000000 46.132300 74.632435 -33.865715
8.343971 14.682843 13.543102 -178.364735 -0.992968 -176.502993 0.000000 0.000000 0.000000 -18.870806 -17.211776 -21.494149 7.205320 15.502376 49.646579 3.127270 -5.929463 -32.265155 4.542707 -12.849085 -38.806910 0.000000 0.000000 0.000000 24.402524 7.206491 -19.780083 -6.239622 -14.656593 45.936044 -2.397953 -10.185499 -34.277208 -0.200537 2.882357 -7.951394 2.957965 2.830350 11.057933 0.369870 4.252833 -3.772189 -2.088429 1.854723 -10.087303 -8.860615 -2.991049 -7.086507 7.668600 -3.929174 9.061523 3.574694 -1.886630 4.188244 0.000000 0.000000 0.000000 8.998930 14.060384 -31.419419 17.359492 -27.329210 4.251140 1.577975 7.686334 37.580434 0.000000 0.000000 0.000000 -7.125000 0.000000 0.000000 -17.080944 -6.166750 -19.668462 0.000000 0.000000 0.000000 -10.300737 16.452837 38.983587 -21.180682 -32.038560 -6.145564 -15.502939 10.935744 47.496189 0.000000 0.000000 0.000000 7.125000 0.000000 0.000000 45.465417 74.532996 -33.244762
8.341308 14.681602 13.548576 -178.405925 -0.926182 -176.462980 0.000000 0.000000 0.000000 -18.899508 -17.206807 -21.598933 7.227221 15.520276 49.728449 3.124494 -6.052613 -32.233781 4.479931 -12.772993 -38.524593 0.000000 0.000000 0.000000 24.330423 7.230648 -19.908116 -6.264190 -14.679538 46.032990 -2.411904 -10.080789 -34.287703 -0.194755 2.842036 -7.839283 2.992866 2.797336 11.234550 0.313159 4.217393 -3.817623 -2.174680 1.828568 -10.237062 -8.949922 -3.166333 -6.838375 7.765251 -4.179393 8.882643 3.605859 -2.012917 4.117711 0.000000 0.000000 0.000000 9.200548 13.982487 -31.166151 17.253964 -27.191298 4.202785 1.661653 7.720061 37.787976 0.000000 0.000000 0.000000 -7.125000 0.000000 0.000000 -17.047073 -6.372791 -19.680858 0.000000 0.000000 0.000000 -10.407310 16.401362 38.975207 -21.274478 -32.147343 -6.195376 -15.815720 10.822512 47.162219 0.000000 0.000000 0.000000 7.125000 0.000000 0.000000 44.195006 74.442024 -32.158311
8.338939 14.678697 13.555645 -178.410374 -0.874972 -176.390543 0.000000 0.000000 0.000000 -18.868300 -17.216623 -21.771749 7.253474 15.541652 49.826514 3.123280 -6.102668 -32.220721 4.459825 -12.748367 -38.433544 0.000000 0.000000 0.000000 24.303299 7.325449 -20.059453 -6.290493 -14.704052 46.136690 -2.396029 -10.144842 -34.240661 -0.214330 2.971513 -8.200198 3.064576 2.757322 11.392125 0.270084 4.178323 -3.868403 -2.265054 1.798629 -10.380397 -9.034895 -3.330358 -6.651553 7.840281 -4.411842 8.775714 3.630279 -2.130671 4.077567 0.000000 0.000000 0.000000 9.398009 13.920146 -30.924867 17.177134 -27.090673 4.167677 1.701985 7.794688 37.903037 0.000000 0.000000 0.000000 -7.125000 0.000000 0.000000 -17.031637 -6.486541 -19.691551 0.000000 0.000000 0.000000 -10.531604 16.345828 39.020067 -21.365619 -32.252568 -6.243932 -16.167166 10.743213 46.817103 0.000000 0.000000 0.000000 7.125000 0.000000 0.000000 42.863798 74.355960 -31.032837
8.337602 14.672754 13.566566 -178.352427 -0.811825 -176.262763 0.000000 0.000000 0.000000 -18.734057 -17.222640 -22.059699 7.285642 15.567802 49.946716 3.123206 -6.076221 -32.223396 4.471786 -12.763076 -38.487851 0.000000 0.000000 0.000000 24.345570 7.523284 -20.266947 -6.319020 -14.730574 46.249018 -2.327905 -10.459833 -34.063998 -0.280077 3.401358 -9.398355 3.144587 2.716982 11.447100 0.278553 4.139469 -3.875832 -2.296776 1.773519 -10.418582 -9.112380 -3.503009 -6.635803 7.842064 -4.637833 8.761673 3.629091 -2.244410 4.092276 0.000000 0.000000 0.000000 9.551196 13.799424 -30.717819 17.164654 -27.074254 4.162031 1.802054 7.724558 37.896128 0.000000 0.000000 0.000000 -7.125000 0.000000 0.000000 -16.980228 -6.489662 -19.627587 0.000000 0.000000 0.000000 -10.718890 16.185360 39.080391 -21.496965 -32.403749 -6.314136 -16.226005 10.504071 46.646532 0.000000 0.000000 0.000000 7.125000 0.000000 0.000000 42.325341 74.267183 -30.536799
8.337706 14.669007 13.578859 -178.295853 -0.761783 -176.113713 0.000000 0.000000 0.000000 -18.589590 -17.255006 -22.358971 7.320966 15.596285 50.077965 3.127180 -6.011281 -32.253790 4.528552 -12.832265 -38.743952 0.000000 0.000000 0.000000 24.379882 7.642351 -20.518353 -6.348234 -14.757507 46.363815 -2.325582 -10.438203 -34.036709 -0.280709 3.407578 -9.415522 3.161816 2.673623 11.413219 0.321466 4.085382 -3.836398 -2.246367 1.750124 -10.359884 -9.120427 -3.672984 -6.680023 7.717528 -4.843789 8.716275 3.577402 -2.349229 4.101291 0.000000 0.000000 0.000000 9.717557 13.618321 -30.677779 17.223463 -27.151426 4.188840 2.116406 7.290429 38.014166 0.000000 0.000000 0.000000 -7.125000 0.000000 0.000000 -16.825691 -6.633578 -19.470239 0.000000 0.000000 0.000000 -10.907686 15.919158 39.007809 -21.632564 -32.559116 -6.387017 -16.018276 10.197071 46.609211 0.000000 0.000000 0.000000 7.125000 0.000000 0.000000 42.427055 74.165026 -30.530600
8.337285 14.666685 13.588991 -178.253122 -0.654261 -175.989504 0.000000 0.000000 0.000000 -18.478430 -17.242484 -22.613656 7.354749 15.623460 50.203477 3.133591 -5.931014 -32.299307 4.591513 -12.908321 -39.026529 0.000000 0.000000 0.000000 24.395816 7.759063 -20.738468 -6.377762 -14.784689 46.479675 -2.361052 -10.233152 -34.102738 -0.243561 3.164272 -8.737284 3.178527 2.650009 11.383100 0.359807 4.057409 -3.788453 -2.205596 1.739571 -10.292142 -9.133328 -3.818282 -6.693463 7.586489 -5.015524 8.637006 3.527242 -2.437950 4.091771 0.000000 0.000000 0.000000 9.889856 13.453633 -30.699179 17.278474 -27.223426 4.213957 2.377949 6.846868 38.249416 0.000000 0.000000 0.000000 -7.125000 0.000000 0.000000 -16.704499 -6.884649 -19.382008 0.000000 0.000000 0.000000 -11.102442 15.653949 38.944655 -21.742816 -32.685053 -6.446432 -15.901206 9.904021 46.465267 0.000000 0.000000 0.000000 7.125000 0.000000 0.000000 42.149633 74.026323 -30.199931
